<svg width="18" height="22" viewBox="0 0 18 22" fill="none" xmlns="http://www.w3.org/2000/svg">
<path d="M11 18.3788H11.75V17.6288H11V18.3788ZM6.99999 18.3788V17.6288H6.24999V18.3788H6.99999ZM15 14.3788H14.25V14.6894L14.4697 14.9091L15 14.3788ZM10.5 3.05878H9.74999V3.65137L10.3265 3.78844L10.5 3.05878ZM7.49999 3.05878L7.6729 3.78858L8.24999 3.65185V3.05878H7.49999ZM2.99999 14.3788L3.53032 14.9091L3.74999 14.6894V14.3788H2.99999ZM8.99999 21.1288C10.5142 21.1288 11.75 19.893 11.75 18.3788H10.25C10.25 19.0646 9.68578 19.6288 8.99999 19.6288V21.1288ZM11 17.6288H6.99999V19.1288H11V17.6288ZM6.24999 18.3788C6.24999 19.8906 7.47334 21.1288 8.99999 21.1288V19.6288C8.30664 19.6288 7.74999 19.067 7.74999 18.3788H6.24999ZM15.75 14.3788V9.37878H14.25V14.3788H15.75ZM15.75 9.37878C15.75 6.04656 13.9478 3.10764 10.6735 2.32912L10.3265 3.78844C12.7722 4.36993 14.25 6.57101 14.25 9.37878H15.75ZM11.25 3.05878V2.37878H9.74999V3.05878H11.25ZM11.25 2.37878C11.25 1.13457 10.2442 0.128784 8.99999 0.128784V1.62878C9.41578 1.62878 9.74999 1.963 9.74999 2.37878H11.25ZM8.99999 0.128784C7.75578 0.128784 6.74999 1.13457 6.74999 2.37878H8.24999C8.24999 1.963 8.5842 1.62878 8.99999 1.62878V0.128784ZM6.74999 2.37878V3.05878H8.24999V2.37878H6.74999ZM7.32708 2.32899C4.04171 3.1074 2.24999 6.03723 2.24999 9.37878H3.74999C3.74999 6.56034 5.21827 4.37017 7.6729 3.78858L7.32708 2.32899ZM2.24999 9.37878V14.3788H3.74999V9.37878H2.24999ZM2.46966 13.8485L1.17966 15.1385L2.24032 16.1991L3.53032 14.9091L2.46966 13.8485ZM1.17966 15.1385C0.086063 16.2321 0.839283 18.1288 2.40999 18.1288V16.6288C2.2007 16.6288 2.07392 16.3655 2.24032 16.1991L1.17966 15.1385ZM2.40999 18.1288H15.58V16.6288H2.40999V18.1288ZM15.58 18.1288C17.1347 18.1288 17.9252 16.2434 16.8203 15.1385L15.7597 16.1991C15.9147 16.3542 15.8053 16.6288 15.58 16.6288V18.1288ZM16.8203 15.1385L15.5303 13.8485L14.4697 14.9091L15.7597 16.1991L16.8203 15.1385Z" fill="#111111"/>
</svg>
